<?xml version="1.0" standalone="no"?><!DOCTYPE svg PUBLIC "-//W3C//DTD SVG 1.1//EN" "http://www.w3.org/Graphics/SVG/1.1/DTD/svg11.dtd"><svg class="icon" height="512" viewBox="0 0 1024 1024" version="1.1" xmlns="http://www.w3.org/2000/svg"><path d="M537.298824 70.475294l1.807058 22.889412-39.152941 3.614118c-42.767059 3.614118-60.837647 10.842353-74.089412 29.515294-5.421176 7.830588-25.298824 16.865882-49.995294 24.094117-22.889412 6.023529-60.235294 19.275294-83.727059 28.310589-37.948235 15.058824-42.164706 18.672941-43.971764 34.93647-0.602353 10.24 3.614118 26.503529 10.842353 37.948235 11.444706 18.070588 14.456471 19.877647 37.948235 18.070589 16.263529-1.204706 28.310588-6.023529 33.731765-13.251765 6.625882-9.035294 14.456471-10.842353 46.983529-8.432941 33.731765 1.807059 40.96 4.818824 57.825882 21.684706 18.070588 18.672941 18.672941 20.48 10.24 35.538823-14.456471 25.901176-83.124706 42.767059-101.195294 24.696471-5.421176-5.421176-7.228235-5.421176-7.228235-0.602353 0 4.216471-6.023529 7.830588-13.251765 9.035294-19.275294 2.409412-17.468235 21.684706 3.011765 36.743529 13.854118 10.842353 25.901176 12.649412 81.317647 13.251765 53.609412 0.602353 68.668235 2.409412 88.545882 13.251765 36.743529 19.275294 66.258824 51.2 87.94353 95.171764 35.538824 72.282353 33.129412 152.997647-6.625882 235.52-33.731765 69.270588-77.703529 104.207059-160.828236 125.289412-98.183529 25.298824-185.524706-1.807059-254.795294-79.510588C90.352941 697.524706 44.574118 557.176471 59.632941 463.811765c7.228235-45.176471 4.216471-54.211765-6.023529-17.468236-12.649412 48.188235-8.432941 140.348235 9.637647 201.185883 49.392941 166.851765 163.84 275.877647 320.451765 304.188235 22.287059 4.216471 55.416471 11.444706 72.282352 16.263529 52.404706 15.661176 126.494118 3.614118 203.595295-31.924705 125.289412-58.428235 216.847059-208.414118 206.004705-338.522353-2.409412-29.515294-1.204706-36.743529 3.011765-28.310589 3.614118 6.023529 7.830588 34.334118 9.637647 62.644706 3.011765 61.44-9.035294 109.628235-46.983529 183.717647-13.251765 25.901176-23.491765 48.790588-22.287059 49.995294 4.818824 4.818824 59.632941-61.44 73.487059-88.545882 25.298824-49.995294 33.129412-88.545882 32.527059-159.021176 0-44.574118-3.614118-80.715294-11.444706-109.025883-6.023529-23.491765-10.24-42.767059-9.035294-43.971764 3.614118-3.614118 27.708235 61.44 33.731764 90.352941 7.830588 40.96 1.204706 114.447059-16.263529 182.512941-3.011765 10.842353-1.807059 10.842353 9.035294-1.807059 36.743529-42.164706 54.211765-164.442353 34.334118-242.145882-12.649412-50.597647-44.574118-117.458824-69.872941-148.178824-19.877647-22.889412-19.877647-22.889412 7.830588 3.614118 15.661176 14.456471 34.334118 37.948235 40.96 51.802353 16.263529 33.731765 35.538824 103.002353 35.538823 127.09647 0 31.322353 10.24 28.310588 14.456471-4.818823 9.637647-72.282353-15.661176-153.6-70.475294-228.291765-23.491765-32.527059-23.491765-32.527059-4.216471-15.058823l19.877647 18.070588-11.444706-19.877647c-6.023529-11.444706-28.912941-37.948235-50.597647-59.632941-31.924706-31.924706-52.404706-45.778824-111.435294-74.691765-40.357647-19.877647-83.727059-37.345882-96.37647-39.755294-13.251765-1.807059-31.924706-10.24-41.562353-18.070588-20.48-17.468235-42.767059-28.912941-65.656471-34.334118-16.865882-4.216471-17.468235-3.614118-15.058823 18.672941z" /></svg>